
<?xml version="1.0" encoding="UTF-8" standalone="no"?>
<svg width="800" height="600" xmlns="http://www.w3.org/2000/svg">
  <!-- System Boundary -->
  <rect x="150" y="50" width="500" height="500" fill="none" stroke="#333" stroke-width="2" rx="10" ry="10"/>
  <text x="400" y="80" font-family="Arial" font-size="18" text-anchor="middle" font-weight="bold">GlucoSmart System</text>
  
  <!-- Actors -->
  <!-- End User -->
  <circle cx="70" cy="200" r="20" fill="#f0f0f0" stroke="#333"/>
  <line x1="70" y1="220" x2="70" y2="270" stroke="#333" stroke-width="2"/>
  <line x1="70" y1="240" x2="40" y2="260" stroke="#333" stroke-width="2"/>
  <line x1="70" y1="240" x2="100" y2="260" stroke="#333" stroke-width="2"/>
  <text x="70" y="300" font-family="Arial" font-size="14" text-anchor="middle">End User</text>
  
  <!-- Healthcare Provider -->
  <circle cx="70" cy="400" r="20" fill="#f0f0f0" stroke="#333"/>
  <line x1="70" y1="420" x2="70" y2="470" stroke="#333" stroke-width="2"/>
  <line x1="70" y1="440" x2="40" y2="460" stroke="#333" stroke-width="2"/>
  <line x1="70" y1="440" x2="100" y2="460" stroke="#333" stroke-width="2"/>
  <text x="70" y="500" font-family="Arial" font-size="14" text-anchor="middle">Healthcare</text>
  <text x="70" y="520" font-family="Arial" font-size="14" text-anchor="middle">Provider</text>
  
  <!-- System Admin -->
  <circle cx="730" cy="300" r="20" fill="#f0f0f0" stroke="#333"/>
  <line x1="730" y1="320" x2="730" y2="370" stroke="#333" stroke-width="2"/>
  <line x1="730" y1="340" x2="700" y2="360" stroke="#333" stroke-width="2"/>
  <line x1="730" y1="340" x2="760" y2="360" stroke="#333" stroke-width="2"/>
  <text x="730" y="400" font-family="Arial" font-size="14" text-anchor="middle">System</text>
  <text x="730" y="420" font-family="Arial" font-size="14" text-anchor="middle">Administrator</text>
  
  <!-- Use Cases -->
  <!-- User Management -->
  <ellipse cx="250" cy="120" rx="80" ry="25" fill="#e6f7ff" stroke="#333"/>
  <text x="250" y="125" font-family="Arial" font-size="12" text-anchor="middle">Register Account</text>
  
  <ellipse cx="250" cy="180" rx="80" ry="25" fill="#e6f7ff" stroke="#333"/>
  <text x="250" y="185" font-family="Arial" font-size="12" text-anchor="middle">Manage Profile</text>
  
  <!-- Health Data Management -->
  <ellipse cx="350" cy="240" rx="90" ry="25" fill="#e6f7ff" stroke="#333"/>
  <text x="350" y="245" font-family="Arial" font-size="12" text-anchor="middle">Input Health Data</text>
  
  <ellipse cx="350" cy="300" rx="90" ry="25" fill="#e6f7ff" stroke="#333"/>
  <text x="350" y="305" font-family="Arial" font-size="12" text-anchor="middle">Upload Medical Records</text>
  
  <!-- Risk Assessment -->
  <ellipse cx="500" cy="180" rx="90" ry="25" fill="#e6f7ff" stroke="#333"/>
  <text x="500" y="185" font-family="Arial" font-size="12" text-anchor="middle">Generate Risk Assessment</text>
  
  <ellipse cx="500" cy="240" rx="90" ry="25" fill="#e6f7ff" stroke="#333"/>
  <text x="500" y="245" font-family="Arial" font-size="12" text-anchor="middle">View Recommendations</text>
  
  <!-- Progress Tracking -->
  <ellipse cx="350" cy="360" rx="90" ry="25" fill="#e6f7ff" stroke="#333"/>
  <text x="350" y="365" font-family="Arial" font-size="12" text-anchor="middle">Track Health Progress</text>
  
  <!-- Reporting -->
  <ellipse cx="350" cy="420" rx="90" ry="25" fill="#e6f7ff" stroke="#333"/>
  <text x="350" y="425" font-family="Arial" font-size="12" text-anchor="middle">Generate Health Report</text>
  
  <ellipse cx="350" cy="480" rx="90" ry="25" fill="#e6f7ff" stroke="#333"/>
  <text x="350" y="485" font-family="Arial" font-size="12" text-anchor="middle">Share Report with Provider</text>
  
  <!-- Admin Functions -->
  <ellipse cx="550" cy="360" rx="90" ry="25" fill="#e6f7ff" stroke="#333"/>
  <text x="550" y="365" font-family="Arial" font-size="12" text-anchor="middle">Manage System Users</text>
  
  <ellipse cx="550" cy="420" rx="90" ry="25" fill="#e6f7ff" stroke="#333"/>
  <text x="550" y="425" font-family="Arial" font-size="12" text-anchor="middle">Monitor System Performance</text>
  
  <ellipse cx="550" cy="480" rx="90" ry="25" fill="#e6f7ff" stroke="#333"/>
  <text x="550" y="485" font-family="Arial" font-size="12" text-anchor="middle">Update Risk Algorithms</text>
  
  <!-- Connections -->
  <!-- End User Connections -->
  <line x1="90" y1="200" x2="170" y2="120" stroke="#333"/>
  <line x1="90" y1="200" x2="170" y2="180" stroke="#333"/>
  <line x1="90" y1="200" x2="260" y2="240" stroke="#333"/>
  <line x1="90" y1="200" x2="260" y2="300" stroke="#333"/>
  <line x1="90" y1="200" x2="410" y2="180" stroke="#333"/>
  <line x1="90" y1="200" x2="410" y2="240" stroke="#333"/>
  <line x1="90" y1="200" x2="260" y2="360" stroke="#333"/>
  <line x1="90" y1="200" x2="260" y2="420" stroke="#333"/>
  <line x1="90" y1="200" x2="260" y2="480" stroke="#333"/>
  
  <!-- Healthcare Provider Connections -->
  <line x1="90" y1="400" x2="260" y2="420" stroke="#333"/>
  <line x1="90" y1="400" x2="260" y2="480" stroke="#333"/>
  
  <!-- System Admin Connections -->
  <line x1="710" y1="300" x2="640" y2="360" stroke="#333"/>
  <line x1="710" y1="300" x2="640" y2="420" stroke="#333"/>
  <line x1="710" y1="300" x2="640" y2="480" stroke="#333"/>
  
  <!-- Include/Extend Relationships -->
  <line x1="500" y1="205" x2="500" y2="215" stroke="#333" stroke-dasharray="5,5"/>
  <polygon points="500,235 495,220 505,220" fill="#333"/>
  <text x="520" y="220" font-family="Arial" font-size="10"><<include>></text>
  
  <line x1="400" y1="300" x2="450" y2="300" stroke="#333" stroke-dasharray="5,5"/>
  <polygon points="480,300 465,295 465,305" fill="#333"/>
  <text x="440" y="290" font-family="Arial" font-size="10"><<extend>></text>
</svg>
