
<?xml version="1.0" encoding="UTF-8" standalone="no"?>
<svg width="800" height="600" xmlns="http://www.w3.org/2000/svg">
  <!-- Background -->
  <rect width="800" height="600" fill="#f8fafc" />
  
  <!-- System boundary -->
  <rect x="150" y="50" width="500" height="500" rx="10" ry="10" fill="#ffffff" stroke="#64748b" stroke-width="2" />
  <text x="390" y="80" font-family="Arial" font-size="16" text-anchor="middle" fill="#334155" font-weight="bold">GlucoSmart Health Analytics System</text>
  
  <!-- Actors -->
  <!-- End User -->
  <circle cx="80" cy="150" r="15" fill="#f8fafc" stroke="#0369a1" stroke-width="2" />
  <line x1="80" y1="165" x2="80" y2="200" stroke="#0369a1" stroke-width="2" />
  <line x1="60" y1="180" x2="100" y2="180" stroke="#0369a1" stroke-width="2" />
  <line x1="80" y1="200" x2="60" y2="230" stroke="#0369a1" stroke-width="2" />
  <line x1="80" y1="200" x2="100" y2="230" stroke="#0369a1" stroke-width="2" />
  <text x="80" y="250" font-family="Arial" font-size="12" text-anchor="middle" fill="#0369a1">End User</text>
  
  <!-- Healthcare Provider -->
  <circle cx="80" cy="320" r="15" fill="#f8fafc" stroke="#166534" stroke-width="2" />
  <line x1="80" y1="335" x2="80" y2="370" stroke="#166534" stroke-width="2" />
  <line x1="60" y1="350" x2="100" y2="350" stroke="#166534" stroke-width="2" />
  <line x1="80" y1="370" x2="60" y2="400" stroke="#166534" stroke-width="2" />
  <line x1="80" y1="370" x2="100" y2="400" stroke="#166534" stroke-width="2" />
  <text x="80" y="420" font-family="Arial" font-size="12" text-anchor="middle" fill="#166534">Healthcare Provider</text>
  
  <!-- System Administrator -->
  <circle cx="80" cy="490" r="15" fill="#f8fafc" stroke="#7e22ce" stroke-width="2" />
  <line x1="80" y1="505" x2="80" y2="540" stroke="#7e22ce" stroke-width="2" />
  <line x1="60" y1="520" x2="100" y2="520" stroke="#7e22ce" stroke-width="2" />
  <line x1="80" y1="540" x2="60" y2="570" stroke="#7e22ce" stroke-width="2" />
  <line x1="80" y1="540" x2="100" y2="570" stroke="#7e22ce" stroke-width="2" />
  <text x="80" y="590" font-family="Arial" font-size="12" text-anchor="middle" fill="#7e22ce">System Administrator</text>
  
  <!-- Use Cases -->
  <!-- User Management -->
  <ellipse cx="270" cy="120" rx="90" ry="30" fill="#e0f2fe" stroke="#0369a1" stroke-width="2" />
  <text x="270" y="125" font-family="Arial" font-size="12" text-anchor="middle" fill="#0369a1">Register Account</text>
  
  <ellipse cx="270" cy="190" rx="90" ry="30" fill="#e0f2fe" stroke="#0369a1" stroke-width="2" />
  <text x="270" y="195" font-family="Arial" font-size="12" text-anchor="middle" fill="#0369a1">Manage Profile</text>
  
  <!-- Health Data Management -->
  <ellipse cx="400" cy="260" rx="90" ry="30" fill="#dcfce7" stroke="#166534" stroke-width="2" />
  <text x="400" y="265" font-family="Arial" font-size="12" text-anchor="middle" fill="#166534">Input Health Data</text>
  
  <ellipse cx="400" cy="330" rx="90" ry="30" fill="#dcfce7" stroke="#166534" stroke-width="2" />
  <text x="400" y="335" font-family="Arial" font-size="12" text-anchor="middle" fill="#166534">Upload Medical Records</text>
  
  <!-- Risk Assessment -->
  <ellipse cx="530" cy="120" rx="90" ry="30" fill="#f0fdf4" stroke="#166534" stroke-width="2" />
  <text x="530" y="125" font-family="Arial" font-size="12" text-anchor="middle" fill="#166534">Calculate Risk Score</text>
  
  <ellipse cx="530" cy="190" rx="90" ry="30" fill="#f0fdf4" stroke="#166534" stroke-width="2" />
  <text x="530" y="195" font-family="Arial" font-size="12" text-anchor="middle" fill="#166534">Generate Recommendations</text>
  
  <!-- Reports and Education -->
  <ellipse cx="400" cy="400" rx="90" ry="30" fill="#f3e8ff" stroke="#7e22ce" stroke-width="2" />
  <text x="400" y="405" font-family="Arial" font-size="12" text-anchor="middle" fill="#7e22ce">Generate Health Report</text>
  
  <ellipse cx="400" cy="470" rx="90" ry="30" fill="#f3e8ff" stroke="#7e22ce" stroke-width="2" />
  <text x="400" y="475" font-family="Arial" font-size="12" text-anchor="middle" fill="#7e22ce">Access Educational Content</text>
  
  <!-- System Management -->
  <ellipse cx="530" cy="400" rx="90" ry="30" fill="#f8e8ee" stroke="#be123c" stroke-width="2" />
  <text x="530" y="405" font-family="Arial" font-size="12" text-anchor="middle" fill="#be123c">Monitor System Performance</text>
  
  <ellipse cx="530" cy="470" rx="90" ry="30" fill="#f8e8ee" stroke="#be123c" stroke-width="2" />
  <text x="530" y="475" font-family="Arial" font-size="12" text-anchor="middle" fill="#be123c">Analyze User Statistics</text>
  
  <!-- Connections -->
  <!-- End User connections -->
  <line x1="100" y1="150" x2="180" y2="120" stroke="#0369a1" stroke-width="1.5" />
  <line x1="100" y1="150" x2="180" y2="190" stroke="#0369a1" stroke-width="1.5" />
  <line x1="100" y1="150" x2="310" y2="260" stroke="#0369a1" stroke-width="1.5" />
  <line x1="100" y1="150" x2="310" y2="330" stroke="#0369a1" stroke-width="1.5" />
  <line x1="100" y1="150" x2="310" y2="400" stroke="#0369a1" stroke-width="1.5" />
  <line x1="100" y1="150" x2="310" y2="470" stroke="#0369a1" stroke-width="1.5" />
  
  <!-- Healthcare Provider connections -->
  <line x1="100" y1="320" x2="310" y2="400" stroke="#166534" stroke-width="1.5" />
  
  <!-- System Administrator connections -->
  <line x1="100" y1="490" x2="440" y2="400" stroke="#7e22ce" stroke-width="1.5" />
  <line x1="100" y1="490" x2="440" y2="470" stroke="#7e22ce" stroke-width="1.5" />
  <line x1="100" y1="490" x2="440" y2="400" stroke="#be123c" stroke-width="1.5" />
  <line x1="100" y1="490" x2="440" y2="470" stroke="#be123c" stroke-width="1.5" />
  
  <!-- Include relationships -->
  <line x1="450" y1="260" x2="480" y2="190" stroke="#64748b" stroke-width="1.5" stroke-dasharray="5,5" />
  <text x="470" y="220" font-family="Arial" font-size="10" text-anchor="middle" fill="#64748b">«include»</text>
  
  <line x1="450" y1="330" x2="480" y2="400" stroke="#64748b" stroke-width="1.5" stroke-dasharray="5,5" />
  <text x="470" y="365" font-family="Arial" font-size="10" text-anchor="middle" fill="#64748b">«include»</text>
</svg>
