<svg xmlns="http://www.w3.org/2000/svg" xmlns:xlink="http://www.w3.org/1999/xlink" version="1.1" width="800" height="1000" viewBox="0 0 800 1000">
  <!-- Styles -->
  <style>
    .background { fill: white; }
    .swimlane { fill: #f5f5f5; stroke: #cccccc; stroke-width: 1; }
    .swimlane-label { font-family: Arial; font-size: 16px; font-weight: bold; fill: #333333; }
    .node { fill: #e1f5fe; stroke: #4fc3f7; stroke-width: 2; }
    .node-text { font-family: Arial; font-size: 14px; fill: #333333; text-anchor: middle; }
    .decision { fill: #fff8e1; stroke: #ffca28; stroke-width: 2; }
    .start-end { fill: #e8f5e9; stroke: #66bb6a; stroke-width: 2; }
    .edge { stroke: #78909c; stroke-width: 1.5; marker-end: url(#arrow); }
    .edge-text { font-family: Arial; font-size: 12px; fill: #546e7a; }
  </style>
  
  <!-- Arrow Marker Definition -->
  <defs>
    <marker id="arrow" markerWidth="10" markerHeight="10" refX="9" refY="3" orient="auto" markerUnits="strokeWidth">
      <path d="M0,0 L0,6 L9,3 z" fill="#78909c"/>
    </marker>
  </defs>
  
  <!-- Background -->
  <rect class="background" width="100%" height="100%" />
  
  <!-- Swimlanes -->
  <rect class="swimlane" x="0" y="50" width="250" height="950" />
  <rect class="swimlane" x="250" y="50" width="250" height="950" />
  <rect class="swimlane" x="500" y="50" width="300" height="950" />
  
  <text class="swimlane-label" x="125" y="80">User</text>
  <text class="swimlane-label" x="375" y="80">Frontend</text>
  <text class="swimlane-label" x="650" y="80">Backend</text>
  
  <!-- Start -->
  <circle class="start-end" cx="125" cy="130" r="20" />
  <text class="node-text" x="125" y="135">Start</text>
  
  <!-- User Activities -->
  <rect class="node" x="50" y="180" width="150" height="60" rx="10" ry="10" />
  <text class="node-text" x="125" y="215">Login/Register</text>
  
  <rect class="node" x="50" y="280" width="150" height="60" rx="10" ry="10" />
  <text class="node-text" x="125" y="315">Enter Health Data</text>
  
  <rect class="node" x="50" y="480" width="150" height="60" rx="10" ry="10" />
  <text class="node-text" x="125" y="515">View Dashboard</text>
  
  <rect class="node" x="50" y="680" width="150" height="60" rx="10" ry="10" />
  <text class="node-text" x="125" y="715">Track Symptoms</text>
  
  <rect class="node" x="50" y="800" width="150" height="60" rx="10" ry="10" />
  <text class="node-text" x="125" y="835">Upload Medical Records</text>
  
  <!-- Frontend Activities -->
  <rect class="node" x="300" y="180" width="150" height="60" rx="10" ry="10" />
  <text class="node-text" x="375" y="215">Authentication UI</text>
  
  <rect class="node" x="300" y="280" width="150" height="60" rx="10" ry="10" />
  <text class="node-text" x="375" y="315">Health Form</text>
  
  <rect class="node" x="300" y="380" width="150" height="60" rx="10" ry="10" />
  <text class="node-text" x="375" y="415">Validate Form Data</text>
  
  <path class="decision" d="M375,480 L415,520 L375,560 L335,520 Z" />
  <text class="node-text" x="375" y="525">Valid?</text>
  
  <rect class="node" x="300" y="600" width="150" height="60" rx="10" ry="10" />
  <text class="node-text" x="375" y="635">Display Results &amp;</text>
  <text class="node-text" x="375" y="655">Recommendations</text>
  
  <rect class="node" x="300" y="800" width="150" height="60" rx="10" ry="10" />
  <text class="node-text" x="375" y="835">Medical Record Upload UI</text>
  
  <!-- Backend Activities -->
  <rect class="node" x="570" y="180" width="160" height="60" rx="10" ry="10" />
  <text class="node-text" x="650" y="215">Authentication Service</text>
  
  <rect class="node" x="570" y="380" width="160" height="60" rx="10" ry="10" />
  <text class="node-text" x="650" y="415">Process Health Data</text>
  
  <rect class="node" x="570" y="480" width="160" height="60" rx="10" ry="10" />
  <text class="node-text" x="650" y="515">Calculate Risk Score</text>
  
  <rect class="node" x="570" y="580" width="160" height="60" rx="10" ry="10" />
  <text class="node-text" x="650" y="615">Generate</text>
  <text class="node-text" x="650" y="635">Recommendations</text>
  
  <rect class="node" x="570" y="680" width="160" height="60" rx="10" ry="10" />
  <text class="node-text" x="650" y="715">Store Health Data</text>
  
  <rect class="node" x="570" y="800" width="160" height="60" rx="10" ry="10" />
  <text class="node-text" x="650" y="815">Process Medical</text>
  <text class="node-text" x="650" y="835">Record Data</text>
  
  <!-- End -->
  <circle class="start-end" cx="125" cy="920" r="20" />
  <text class="node-text" x="125" y="925">End</text>
  
  <!-- Connections -->
  <!-- Login flow -->
  <path class="edge" d="M125,150 L125,180" />
  <path class="edge" d="M200,210 L300,210" />
  <path class="edge" d="M450,210 L570,210" />
  
  <!-- Health data flow -->
  <path class="edge" d="M125,240 L125,280" />
  <path class="edge" d="M200,310 L300,310" />
  <path class="edge" d="M375,340 L375,380" />
  <path class="edge" d="M375,440 L375,480" />
  
  <!-- Validation branch -->
  <path class="edge" d="M335,520 L300,520 L300,410 L300,310" />
  <text class="edge-text" x="290" y="470">No</text>
  
  <path class="edge" d="M415,520 L500,520 L570,520" />
  <text class="edge-text" x="500" y="510">Yes</text>
  
  <path class="edge" d="M650,440 L650,480" />
  <path class="edge" d="M650,540 L650,580" />
  <path class="edge" d="M650,640 L650,680" />
  
  <!-- Display results -->
  <path class="edge" d="M570,630 L450,630" />
  
  <!-- View dashboard -->
  <path class="edge" d="M375,560 L375,600" />
  <path class="edge" d="M300,630 L200,630 L125,630 L125,480" />
  
  <!-- Symptom tracking -->
  <path class="edge" d="M125,540 L125,680" />
  <path class="edge" d="M200,710 L570,710" />
  
  <!-- Medical records -->
  <path class="edge" d="M125,740 L125,800" />
  <path class="edge" d="M200,830 L300,830" />
  <path class="edge" d="M450,830 L570,830" />
  
  <!-- End flow -->
  <path class="edge" d="M125,860 L125,900" />
</svg>
